<?xml version="1.0" encoding="UTF-8"?>
<!-- Generator: Adobe Illustrator 26.0.2, SVG Export Plug-In . SVG Version: 6.00 Build 0)  -->
<svg version="1.1" id="Слой_1" xmlns="http://www.w3.org/2000/svg" xmlns:xlink="http://www.w3.org/1999/xlink" x="0px" y="0px" viewBox="0 0 283.46 283.46" style="enable-background:new 0 0 283.46 283.46;" xml:space="preserve">
<style type="text/css">
	.st0{clip-path:url(#SVGID_00000143587328590917425560000000331793821755614641_);}
	.st1{fill:url(#SVGID_00000178909187649543927280000015743687900938549392_);}
	.st2{clip-path:url(#SVGID_00000143587328590917425560000000331793821755614641_);fill:#F6F6F6;}
	.st3{fill:url(#SVGID_00000065047801376564368410000005971281946245734809_);}
	.st4{fill:url(#SVGID_00000072984407273705145820000005045348513908381318_);}
	.st5{fill:url(#SVGID_00000032623439070715107130000017024152991274037409_);}
</style>
<g>
	<defs>
		<rect id="SVGID_1_" width="283.46" height="283.46"/>
	</defs>
	<clipPath id="SVGID_00000010300181636209224800000009434476063873320595_">
		<use xlink:href="#SVGID_1_" style="overflow:visible;"/>
	</clipPath>
	<g style="clip-path:url(#SVGID_00000010300181636209224800000009434476063873320595_);">
		<g>
			
				<linearGradient id="SVGID_00000095305493927433109030000008108026193251111837_" gradientUnits="userSpaceOnUse" x1="38.3675" y1="110.3848" x2="245.097" y2="110.3848">
				<stop offset="0" style="stop-color:#F5DFBB"/>
				<stop offset="0.1507" style="stop-color:#F5DFBB"/>
				<stop offset="0.3273" style="stop-color:#E6C7A2"/>
				<stop offset="0.5618" style="stop-color:#D6AA85"/>
				<stop offset="1" style="stop-color:#A67B5E"/>
			</linearGradient>
			<path style="fill:url(#SVGID_00000095305493927433109030000008108026193251111837_);" d="M109.21,148.05v52.87H98.58V76.16h41.6     c7.38,0,13.9,0.86,19.56,2.57c5.65,1.72,10.36,4.09,14.13,7.13c3.76,3.04,6.63,6.67,8.59,10.89c1.96,4.23,2.94,8.91,2.94,14.06     c0,4.75-0.87,9.08-2.6,12.97c-1.73,3.9-4.03,7.33-6.89,10.3c-2.87,2.97-6.18,5.48-9.95,7.52c-3.77,2.05-7.68,3.53-11.75,4.46     l39.79,54.85h-13.56l-37.08-52.87h-20.09l5.86-8.32h6.32c5.42,0,10.47-0.59,15.15-1.78c4.67-1.19,8.67-2.97,11.98-5.35     c3.32-2.38,5.91-5.35,7.8-8.91c1.88-3.57,2.83-7.72,2.83-12.48c0-9.5-3.17-16.34-9.49-20.5c-6.33-4.16-15.68-6.24-28.04-6.24     h-26.45v55.25l0.03,1.11l-0.05,6.06 M38.37,19.84v181.08l60.22,0v-9.05H48.7V28.9h186.06v162.97l-47.16,0.24l6.39,8.82l51.11,0     V19.84H38.37z"/>
		</g>
	</g>
	<path style="clip-path:url(#SVGID_00000010300181636209224800000009434476063873320595_);fill:#F6F6F6;" d="M31.98,263.02   c-0.7,0-1.29-0.05-1.99-0.1c-3.94-0.26-6.04-1.24-8.41-4.44c-1.99-2.63-3.94-5.89-5.66-8.52c-1.08-1.65-1.78-1.96-4.53-1.96H9.49   v8.11c0,4.39,0.59,4.65,4.91,5.06v1.45H0v-1.45c4.48-0.47,4.85-0.67,4.85-5.06v-20.6c0-4.39-0.59-4.54-4.85-5.01v-1.45h13.75   c3.94,0,6.58,0.46,8.63,1.76c2.21,1.34,3.67,3.67,3.67,6.81c0,4.44-2.97,7.23-6.96,8.88c0.97,1.6,3.29,5.06,4.91,7.38   c2,2.74,3.02,4.03,4.26,5.32c1.46,1.5,2.7,2.07,3.94,2.38L31.98,263.02z M12.08,246.24c2.8,0,4.58-0.41,5.93-1.5   c2.1-1.5,2.97-3.56,2.97-6.35c0-5.52-3.83-7.54-7.98-7.54c-1.56,0-2.48,0.21-2.86,0.52c-0.49,0.36-0.65,0.88-0.65,2.22v12.65H12.08   z"/>
	<path style="clip-path:url(#SVGID_00000010300181636209224800000009434476063873320595_);fill:#F6F6F6;" d="M62.08,254.39   c-0.32,1.34-1.78,6.66-2.32,8.21H33.55v-1.45c5.02-0.36,5.39-0.83,5.39-5.06v-20.4c0-4.6-0.59-4.85-4.64-5.22v-1.45h16.51   c5.07,0,7.17-0.05,7.82-0.1c0.05,1.29,0.27,5.16,0.49,7.9l-1.62,0.26c-0.49-1.76-1.02-2.84-1.62-3.92c-0.86-1.7-2.1-2.07-5.34-2.07   h-5.12c-1.67,0-1.78,0.16-1.78,1.65v11.41h5.99c4.05,0,4.31-0.77,4.96-4.29h1.67v10.64h-1.67c-0.7-3.72-1.13-4.23-5.02-4.23h-5.93   v10.27c0,3.61,1.19,3.92,3.88,3.98h5.02c3.29,0,3.83-0.46,5.02-1.81c1.02-1.08,2.16-3.2,2.91-4.75L62.08,254.39z"/>
	<path style="clip-path:url(#SVGID_00000010300181636209224800000009434476063873320595_);fill:#F6F6F6;" d="M103.13,230.49   c-3.45,0.36-4.58,0.88-4.75,3.25c-0.05,1.65-0.16,3.82-0.16,8.62v20.7h-2.05l-23.08-27v12.91c0,4.65,0.16,6.97,0.27,8.47   c0.11,2.63,1.46,3.41,5.34,3.72v1.45H65.59v-1.45c3.34-0.26,4.64-1.03,4.85-3.56c0.16-1.65,0.27-3.98,0.27-8.67v-13.17   c0-1.45-0.11-2.27-1.08-3.41c-1.02-1.29-2.16-1.6-4.8-1.86v-1.45h8.09l22.87,25.97v-12.65c0-4.8-0.11-7.02-0.27-8.57   c-0.16-2.32-1.4-3.05-5.72-3.3v-1.45h13.32V230.49z"/>
	<path style="clip-path:url(#SVGID_00000010300181636209224800000009434476063873320595_);fill:#F6F6F6;" d="M125.57,228.32   c9.22,0,17.48,6.76,17.48,17.04c0,11.1-7.88,18.02-17.8,18.02c-10.36,0-17.91-7.54-17.91-17.25   C107.34,236.89,114.19,228.32,125.57,228.32z M124.49,230.23c-6.04,0-11.54,4.85-11.54,14.51c0,9.6,5.5,16.68,13.16,16.68   c6.53,0,11.43-4.65,11.43-14.61C137.55,235.96,131.56,230.23,124.49,230.23z"/>
	<path style="clip-path:url(#SVGID_00000010300181636209224800000009434476063873320595_);fill:#F6F6F6;" d="M182.05,230.49   c-3.61,0.46-4.53,0.93-6.47,5.58c-1.46,3.41-8.9,20.71-11.54,27.11h-1.78c-3.18-8.31-7.82-20.4-10.89-28.04   c-1.51-3.82-2.43-4.34-5.72-4.65v-1.45h13.7v1.45c-3.99,0.41-4.21,1.03-3.45,2.94c1.35,3.77,5.29,14.04,8.68,22.62   c2.86-6.66,6.42-15.08,8.95-21.58c1.19-2.99,0.54-3.46-3.88-3.98v-1.45h12.4V230.49z"/>
	<g style="clip-path:url(#SVGID_00000010300181636209224800000009434476063873320595_);">
		
			<linearGradient id="SVGID_00000090294473968343434250000006180508976350650012_" gradientUnits="userSpaceOnUse" x1="178.5463" y1="245.4604" x2="215.06" y2="245.4604">
			<stop offset="0" style="stop-color:#F5DFBB"/>
			<stop offset="0.1507" style="stop-color:#F5DFBB"/>
		</linearGradient>
		<path style="fill:url(#SVGID_00000090294473968343434250000006180508976350650012_);" d="M199.42,262.6v-1.91    c3.4-0.46,3.4-1.03,2.64-3.25c-0.54-1.55-1.4-3.87-2.21-5.94h-10.52c-0.59,1.6-1.35,3.56-1.89,5.16    c-1.13,3.25,0.16,3.67,4.42,4.03v1.91h-13.32v-1.91c3.4-0.41,4.26-0.88,6.09-5.21l11.22-26.7l2.59-0.46    c3.45,8.98,7.12,18.17,10.63,26.8c1.99,4.8,2.48,5.16,5.99,5.58v1.91H199.42z M194.67,237.92c-1.56,3.72-3.07,7.18-4.42,10.95    h8.58L194.67,237.92z"/>
	</g>
	<g style="clip-path:url(#SVGID_00000010300181636209224800000009434476063873320595_);">
		
			<linearGradient id="SVGID_00000073000451191811120460000002147081294702674349_" gradientUnits="userSpaceOnUse" x1="217.0063" y1="245.9767" x2="251.3103" y2="245.9767">
			<stop offset="0" style="stop-color:#F5DFBB"/>
			<stop offset="0.1507" style="stop-color:#F5DFBB"/>
			<stop offset="0.3273" style="stop-color:#E6C7A2"/>
			<stop offset="0.5618" style="stop-color:#D6AA85"/>
			<stop offset="1" style="stop-color:#A67B5E"/>
		</linearGradient>
		<path style="fill:url(#SVGID_00000073000451191811120460000002147081294702674349_);" d="M250.93,262.91c-0.32,0-0.97,0-1.62-0.05    c-6.85-0.31-8.85-1.7-10.46-3.87c-2.16-2.84-3.72-5.99-5.55-9.09c-0.81-1.39-1.56-1.7-3.29-1.7l-1.08-0.05v7.54    c0,4.18,0.54,4.54,4.58,5.01v1.91h-16.51v-1.91c4.1-0.41,4.58-0.83,4.58-5.01v-19.78c0-4.08-0.54-4.65-4.58-4.96v-1.91h15.64    c4.8,0,7.55,0.52,9.76,1.96c2.16,1.39,3.61,3.67,3.61,6.87c0,4.6-3.18,7.02-6.74,8.36c0.81,1.55,2.91,4.91,4.53,7.28    c1.89,2.84,3.07,4.23,4.1,5.37c1.24,1.34,1.83,1.76,3.4,2.27L250.93,262.91z M230.38,246.03c2.32,0,4.1-0.36,5.29-1.34    c1.78-1.45,2.53-3.41,2.53-6.04c0-5.47-3.29-7.43-6.31-7.43c-1.46,0-2.16,0.21-2.48,0.52c-0.38,0.31-0.49,0.93-0.49,1.96v12.34    H230.38z"/>
	</g>
	<g style="clip-path:url(#SVGID_00000010300181636209224800000009434476063873320595_);">
		
			<linearGradient id="SVGID_00000145036413844940782090000001658280323922278077_" gradientUnits="userSpaceOnUse" x1="251.0996" y1="245.1765" x2="283.4599" y2="245.1765">
			<stop offset="0.0159" style="stop-color:#D6AA85"/>
			<stop offset="0.6384" style="stop-color:#A67B5E"/>
			<stop offset="0.9614" style="stop-color:#D6AA85"/>
		</linearGradient>
		<path style="fill:url(#SVGID_00000145036413844940782090000001658280323922278077_);" d="M281.41,237.97    c-0.59-2.38-1.78-4.34-2.32-5.06c-0.97-1.08-1.4-1.5-4.58-1.5h-3.45v24.27c0,4.34,0.54,4.65,5.34,5.01v1.91h-17.91v-1.91    c4.58-0.36,5.07-0.67,5.07-5.01v-24.27h-3.29c-3.02,0-3.88,0.46-4.91,1.7c-0.76,0.98-1.51,2.84-2.21,4.91h-2.05    c0.38-3.77,0.75-7.8,0.86-10.28h1.62c0.81,1.19,1.46,1.29,3.07,1.29h21.57c1.46,0,2.21-0.31,3.13-1.29h1.56    c0.05,2.17,0.27,6.71,0.54,10.07L281.41,237.97z"/>
	</g>
</g>
</svg>